Coordinates
version=1
nRows=19
nColumns=21
inDegrees=yes

Units are S.I. units (second, meters, Newtons, ...)
If the header above contains a line with 'inDegrees', this indicates whether rotational values are in degrees (yes) or radians (no).

endheader
time	sternoclavicular_r2	sternoclavicular_r3	unrotscap_r3	unrotscap_r2	acromioclavicular_r2	acromioclavicular_r3	acromioclavicular_r1	unrothum_r1	unrothum_r3	unrothum_r2	elv_angle	shoulder_elev	shoulder1_r2	shoulder_rot	elbow_flexion	pro_sup	deviation	flexion	wrist_hand_r1	wrist_hand_r3
      5.05050505	     -5.73832959	      2.43048558	     -2.43048558	      5.73832959	     -1.16189502	      9.39002682	      4.22075243	     -4.22075243	     -9.39002682	      1.16189502	    -57.69437677	     23.71205262	     57.69437677	     10.74950082	     90.75091804	      0.00000000	      0.00000000	     -0.00000000	     -0.00000000	      0.00000000
      5.15151515	     -5.51697009	      2.33672815	     -2.33672815	      5.51697009	     -1.11707422	      9.02780091	      4.05793438	     -4.05793438	     -9.02780091	      1.11707422	    -57.72560314	     22.79734599	     57.72560314	     10.71824252	     88.24114503	      0.00000000	      0.00000000	     -0.00000000	     -0.00000000	      0.00000000
      5.25252525	     -5.28433520	      2.23819498	     -2.23819498	      5.28433520	     -1.06997039	      8.64712429	      3.88682286	     -3.88682286	     -8.64712429	      1.06997039	    -57.74133601	     21.83604691	     57.74133601	     10.65640238	     85.67737702	      0.00000000	      0.00000000	     -0.00000000	     -0.00000000	      0.00000000
      5.35353535	     -5.04031790	      2.13484077	     -2.13484077	      5.04031790	     -1.02056185	      8.24782186	      3.70733916	     -3.70733916	     -8.24782186	      1.02056185	    -57.74016948	     20.82771325	     57.74016948	     10.56099695	     83.05909541	      0.00000000	      0.00000000	     -0.00000000	     -0.00000000	      0.00000000
      5.45454545	     -4.78478349	      2.02660846	     -2.02660846	      4.78478349	     -0.96882133	      7.82967317	      3.51938421	     -3.51938421	     -7.82967317	      0.96882133	    -57.72045580	     19.77178828	     57.72045580	     10.42833662	     80.38566222	      0.00000000	      0.00000000	     -0.00000000	     -0.00000000	      0.00000000
      5.55555556	     -4.51755296	      1.91342222	     -1.91342222	      4.51755296	     -0.91471258	      7.39238532	      3.32282632	     -3.32282632	     -7.39238532	      0.91471258	    -57.68031665	     18.66753237	     57.68031665	     10.25384778	     77.65629478	      0.00000000	      0.00000000	     -0.00000000	     -0.00000000	      0.00000000
      5.65656566	     -4.23838593	      1.79518024	     -1.79518024	      4.23838593	     -0.85818694	      6.93556495	      3.11748871	     -3.11748871	     -6.93556495	      0.85818694	    -57.61763215	     17.51395221	     57.61763215	     10.03178079	     74.87008343	      0.00000000	      0.00000000	     -0.00000000	     -0.00000000	      0.00000000
      5.75757576	     -3.94695708	      1.67174473	     -1.67174473	      3.94695708	     -0.79917852	      6.45867969	      2.90313207	     -2.90313207	     -6.45867969	      0.79917852	    -57.53003827	     16.30970345	     57.53003827	      9.75474025	     72.02604547	      0.00000000	      0.00000000	     -0.00000000	     -0.00000000	      0.00000000
      5.85858586	     -3.64276931	      1.54290515	     -1.54290515	      3.64276931	     -0.73758669	      5.96091615	      2.67939078	     -2.67939078	     -5.96091615	      0.73758669	    -57.41498845	     15.05273202	     57.41498845	      9.41297567	     69.12293761	      0.00000000	      0.00000000	     -0.00000000	     -0.00000000	      0.00000000
      5.95959596	     -3.32496660	      1.40829892	     -1.40829892	      3.32496660	     -0.67323810	      5.44087352	      2.44563520	     -2.44563520	     -5.44087352	      0.67323810	    -57.27005179	     13.73950060	     57.27005179	      8.99360674	     66.15850858	      0.00000000	      0.00000000	     -0.00000000	     -0.00000000	      0.00000000
      6.06060606	     -2.99233065	      1.26741004	     -1.26741004	      2.99233065	     -0.60588609	      4.89655825	      2.20096923	     -2.20096923	     -4.89655825	      0.60588609	    -57.09373181	     12.36497499	     57.09373181	      8.47982196	     63.12992011	      0.00000000	      0.00000000	     -0.00000000	     -0.00000000	      0.00000000
      6.16161616	     -2.64361798	      1.11971181	     -1.11971181	      2.64361798	     -0.53527887	      4.32593551	      1.94447824	     -1.94447824	     -4.32593551	      0.53527887	    -56.88656054	     10.92401677	     56.88656054	      7.84637702	     60.03887042	      0.00000000	      0.00000000	     -0.00000000	     -0.00000000	      0.00000000
      6.26262626	     -2.27018024	      0.96154120	     -0.96154120	      2.27018024	     -0.45966532	      3.71485342	      1.66980104	     -1.66980104	     -3.71485342	      0.45966532	    -56.64681328	      9.38088904	     56.64681328	      7.03154116	     56.84076768	      0.00000000	      0.00000000	     -0.00000000	     -0.00000000	      0.00000000
      6.36363636	     -1.87780784	      0.79535077	     -0.79535077	      1.87780784	     -0.38021789	      3.07278724	      1.38119672	     -1.38119672	     -3.07278724	      0.38021789	    -56.38395028	      7.75951913	     56.38395028	      6.02742513	     53.58520792	      0.00000000	      0.00000000	     -0.00000000	     -0.00000000	      0.00000000
      6.46464646	     -1.45776840	      0.61744189	     -0.61744189	      1.45776840	     -0.29516845	      2.38544757	      1.07224227	     -1.07224227	     -2.38544757	      0.29516845	    -56.11233153	      6.02382288	     56.11233153	      4.75339828	     50.24487271	      0.00000000	      0.00000000	     -0.00000000	     -0.00000000	      0.00000000
      6.56565657	     -1.00260672	      0.42465688	     -0.42465688	      1.00260672	     -0.20300747	      1.64063493	      0.73745411	     -0.73745411	     -1.64063493	      0.20300747	    -55.85401174	      4.14299367	     55.85401174	      3.08927249	     46.80662883	      0.00000000	      0.00000000	     -0.00000000	     -0.00000000	      0.00000000
      6.66666667	     -0.51159120	      0.21668589	     -0.21668589	      0.51159120	     -0.10358681	      0.83715218	      0.37629414	     -0.37629414	     -0.83715218	      0.10358681	    -55.68000730	      2.11400850	     55.68000730	      0.95396392	     43.29942020	      0.00000000	      0.00000000	     -0.00000000	     -0.00000000	      0.00000000
      6.76767677	     -0.06128234	      0.02595631	     -0.02595631	      0.06128234	     -0.01240843	      0.10028054	      0.04507541	     -0.04507541	     -0.10028054	      0.01240843	    -55.58984139	      0.25323223	     55.58984139	     -1.34638423	     40.16897815	      0.00000000	      0.00000000	     -0.00000000	     -0.00000000	      0.00000000
      6.86868687	     -0.01429900	      0.00605638	     -0.00605638	      0.01429900	     -0.00289526	      0.02339845	      0.01051744	     -0.01051744	     -0.02339845	      0.00289526	    -56.03402360	      0.05908666	     56.03402360	     -1.32785020	     39.05780097	      0.00000000	      0.00000000	     -0.00000000	     -0.00000000	      0.00000000
